<svg xmlns="http://www.w3.org/2000/svg" width="34" height="54"><path d="M3.71 39.63c.22.05.45.09.67.12 1.34.21 2.73.26 4.07.24h17.1c1.34.01 2.73-.03 4.07-.24.23-.04.45-.08.67-.12 1.29-.28 2.5-.76 3.17-1.55.4-.48.6-1.07.51-1.79-.03-.36-.09-.7-.17-1.04s-.17-.69-.25-1.05c-.34-1.42-1.07-4.39-1.29-5.22-.2-.75-.32-1.13-.44-1.46-.6-1.38-2.23-2.02-3.95-2.3-1.54-.23-3.67-.21-5.38-.22H11.24c-1.71.01-3.59-.02-5.13.22-1.72.29-3.35.92-3.95 2.3-.13.33-.25.71-.44 1.46-.22.82-.94 3.8-1.29 5.22-.09.36-.18.71-.25 1.05-.08.34-.14.68-.17 1.04-.09.73.11 1.32.51 1.79.68.8 1.89 1.28 3.19 1.55zm16.69-8.68l1.32 1.85h.02l1.05-1.85h.98l-1.49 2.32h-1.04l-1.83-2.32h.99zm-4.07 0h.7v-.54h.95l.01.53h.91l.01.36h-.92l.02 1.31c0 .2.19.3.6.3.11 0 .23-.01.34-.01l.01.38c-.18.01-.37.02-.56.02-.98 0-1.36-.18-1.36-.64v-1.35h-.72l.01-.36zm-2.86-.69c.26-.14.62-.22 1-.24.02.18-.11.36-.37.5-.25.14-.63.23-1.02.22-.01-.17.13-.34.39-.48zm-2.9.94c.31-.24.85-.4 1.44-.4.44 0 .84.14 1.11.14.27 0 .75-.16 1.31-.15.49.01.95.13 1.23.32-.45.13-.74.36-.76.62-.01.29.35.56.91.67-.11.17-.28.33-.49.48-.3.22-.63.42-1.09.42-.47 0-.62-.14-1.15-.14s-.69.13-1.16.14c-.47.01-.8-.23-1.08-.43-.57-.43-.93-1.18-.27-1.67zM34 38.8v6.91c0 4.23-5.01 4.24-8.39 4.3H8.38C5.01 49.94 0 49.93 0 45.7v-6.89c0-.02.02-.02.03-.01.55.73 1.57 1.4 3.47 1.81 1.23.26 2.7.39 4.5.39h17.98c1.8 0 3.28-.13 4.51-.39 1.91-.41 2.93-1.09 3.47-1.83.02-.01.04 0 .04.02z" fill="#1d1d1f"/><path fill="none" d="M0 0h34v54H0z"/></svg>